<?xml version="1.0" encoding="UTF-8"?>
<svg width="30px" height="30px" viewBox="0 0 30 30" version="1.1" xmlns="http://www.w3.org/2000/svg" xmlns:xlink="http://www.w3.org/1999/xlink">
    <!-- Generator: Sketch 43 (38999) - http://www.bohemiancoding.com/sketch -->
    <title>Shape</title>
    <desc>Created with Sketch.</desc>
    <defs></defs>
    <g id="Symbols" stroke="none" stroke-width="1" fill="none" fill-rule="evenodd">
        <g id="searchbar/focus" transform="translate(-48.000000, -29.000000)" fill="#BBBBBB">
            <g id="Group-2" transform="translate(24.000000, 16.000000)">
                <path d="M51.9411759,43 L44.8823524,35.4158234 C42.7666255,37.0661067 39.4418569,38.6869398 36.5753801,38.6869398 C29.6302436,38.6869398 24,32.9366777 24,25.8435985 C24,18.7505194 29.6302436,13 36.5753801,13 C43.5200081,13 49.1502517,18.7500048 49.1502517,25.8433412 C49.1502517,28.6403836 48.2652667,31.221299 46.7785122,33.3298228 L54,40.6825115 L51.9411759,43 Z M36.5754137,15.6851111 C31.0815904,15.6851111 26.6280287,20.2328576 26.6280287,25.8433299 C26.6280287,31.4538022 31.081325,36.0020859 36.5754137,36.0020859 C42.0679098,36.0020859 46.521206,31.4538022 46.521206,25.8433299 C46.521206,20.2328576 42.0679098,15.6851111 36.5754137,15.6851111 L36.5754137,15.6851111 Z" id="Shape"></path>
            </g>
        </g>
    </g>
</svg>