<?xml version="1.0" encoding="UTF-8"?>
<svg width="36px" height="36px" viewBox="0 0 36 36" version="1.1" xmlns="http://www.w3.org/2000/svg" xmlns:xlink="http://www.w3.org/1999/xlink">
    <!-- Generator: Sketch 43 (38999) - http://www.bohemiancoding.com/sketch -->
    <title>Shape</title>
    <desc>Created with Sketch.</desc>
    <defs></defs>
    <g id="Symbols" stroke="none" stroke-width="1" fill="none" fill-rule="evenodd">
        <g id="searchbar/focus" transform="translate(-572.000000, -26.000000)" fill="#CCCCCC">
            <g id="Group-2" transform="translate(24.000000, 16.000000)">
                <path d="M566,46 C556.057812,46 548,37.9421875 548,28 C548,18.0578125 556.057812,10 566,10 C575.942188,10 584,18.0578125 584,28 C584,37.9421875 575.942188,46 566,46 L566,46 Z M574.472656,21.2746094 C574.915625,20.8386719 574.922656,20.1285156 574.490234,19.6820313 L574.490234,19.6820313 C574.054297,19.2390625 573.344141,19.2320313 572.897656,19.6644531 L566,26.425 L559.102344,19.6679688 C558.659375,19.2320313 557.945703,19.2390625 557.509766,19.6855469 L557.509766,19.6855469 C557.073828,20.1285156 557.080859,20.8421875 557.527344,21.278125 L564.393359,28 L557.527344,34.7253906 C557.084375,35.1613281 557.077344,35.8714844 557.509766,36.3179688 L557.509766,36.3179688 C557.945703,36.7609375 558.655859,36.7679688 559.102344,36.3355469 L566,29.575 L572.897656,36.3320313 C573.340625,36.7679688 574.054297,36.7609375 574.490234,36.3144531 L574.490234,36.3144531 C574.926172,35.8714844 574.919141,35.1578125 574.472656,34.721875 L567.606641,28 L574.472656,21.2746094 L574.472656,21.2746094 Z" id="Shape" transform="translate(566.000000, 28.000000) scale(1, -1) translate(-566.000000, -28.000000) "></path>
            </g>
        </g>
    </g>
</svg>